<svg width="26" height="25" viewBox="0 0 26 25" fill="none" xmlns="http://www.w3.org/2000/svg">
<path d="M21.9402 24.2367C22.976 24.2367 23.8157 23.426 23.8157 22.426C23.8157 21.4261 22.976 20.6154 21.9402 20.6154C20.9044 20.6154 20.0647 21.4261 20.0647 22.426C20.0647 23.426 20.9044 24.2367 21.9402 24.2367Z" fill="#2A497E" stroke="#2A497E" stroke-width="3" stroke-linecap="round" stroke-linejoin="round"/>
<path d="M9.43689 24.2367C10.4727 24.2367 11.3124 23.426 11.3124 22.426C11.3124 21.4261 10.4727 20.6154 9.43689 20.6154C8.40108 20.6154 7.5614 21.4261 7.5614 22.426C7.5614 23.426 8.40108 24.2367 9.43689 24.2367Z" fill="#2A497E" stroke="#2A497E" stroke-width="3" stroke-linecap="round" stroke-linejoin="round"/>
<path d="M3.81043 2.50887H25.066L22.5653 15.787H6.31108L3.81043 2.50887ZM3.81043 2.50887C3.60203 1.70413 2.5601 0.0946655 0.0594482 0.0946655" stroke="#2A497E" stroke-width="3" stroke-linecap="round" stroke-linejoin="round"/>
<path d="M22.5653 15.787H6.31109H4.09898C1.86801 15.787 0.684631 16.7299 0.684631 18.2012C0.684631 19.6724 1.86801 20.6154 4.09898 20.6154H21.9402" stroke="#2A497E" stroke-width="3" stroke-linecap="round" stroke-linejoin="round"/>
</svg>
