<svg width="26" height="25" viewBox="0 0 26 25" fill="none" xmlns="http://www.w3.org/2000/svg">
<path d="M21.9399 24.2367C22.9757 24.2367 23.8154 23.426 23.8154 22.426C23.8154 21.4261 22.9757 20.6154 21.9399 20.6154C20.9042 20.6154 20.0645 21.4261 20.0645 22.426C20.0645 23.426 20.9042 24.2367 21.9399 24.2367Z" fill="#2A497E" stroke="#2A497E" stroke-width="3" stroke-linecap="round" stroke-linejoin="round"/>
<path d="M9.43677 24.2367C10.4725 24.2367 11.3123 23.426 11.3123 22.426C11.3123 21.4261 10.4725 20.6154 9.43677 20.6154C8.40096 20.6154 7.56128 21.4261 7.56128 22.426C7.56128 23.426 8.40096 24.2367 9.43677 24.2367Z" fill="#2A497E" stroke="#2A497E" stroke-width="3" stroke-linecap="round" stroke-linejoin="round"/>
<path d="M3.8103 2.50887H25.0658L22.5652 15.787H6.31096L3.8103 2.50887ZM3.8103 2.50887C3.60191 1.70413 2.55998 0.0946655 0.0593262 0.0946655" stroke="#2A497E" stroke-width="3" stroke-linecap="round" stroke-linejoin="round"/>
<path d="M22.5653 15.787H6.31103H4.09892C1.86795 15.787 0.68457 16.7299 0.68457 18.2012C0.68457 19.6724 1.86795 20.6154 4.09892 20.6154H21.9401" stroke="#2A497E" stroke-width="3" stroke-linecap="round" stroke-linejoin="round"/>
</svg>
