<svg width="26" height="25" viewBox="0 0 26 25" fill="none" xmlns="http://www.w3.org/2000/svg">
<path d="M21.9399 24.1183C22.9757 24.1183 23.8154 23.31 23.8154 22.313C23.8154 21.316 22.9757 20.5077 21.9399 20.5077C20.9042 20.5077 20.0645 21.316 20.0645 22.313C20.0645 23.31 20.9042 24.1183 21.9399 24.1183Z" fill="#2A497E" stroke="#2A497E" stroke-width="3" stroke-linecap="round" stroke-linejoin="round"/>
<path d="M9.43677 24.1183C10.4725 24.1183 11.3123 23.31 11.3123 22.313C11.3123 21.316 10.4725 20.5077 9.43677 20.5077C8.40096 20.5077 7.56128 21.316 7.56128 22.313C7.56128 23.31 8.40096 24.1183 9.43677 24.1183Z" fill="#2A497E" stroke="#2A497E" stroke-width="3" stroke-linecap="round" stroke-linejoin="round"/>
<path d="M3.8103 2.45443H25.0658L22.5652 15.6935H6.31096L3.8103 2.45443ZM3.8103 2.45443C3.60191 1.65206 2.55998 0.0473328 0.0593262 0.0473328" stroke="#2A497E" stroke-width="3" stroke-linecap="round" stroke-linejoin="round"/>
<path d="M22.5653 15.6935H6.31103H4.09892C1.86795 15.6935 0.68457 16.6337 0.68457 18.1006C0.68457 19.5675 1.86795 20.5077 4.09892 20.5077H21.9401" stroke="#2A497E" stroke-width="3" stroke-linecap="round" stroke-linejoin="round"/>
</svg>
