<svg width="32" height="32" viewBox="0 0 32 32" fill="none" xmlns="http://www.w3.org/2000/svg">
<path fill-rule="evenodd" clip-rule="evenodd" d="M7.126 11C7.34864 11.8589 7.85039 12.6195 8.55239 13.1621C9.25439 13.7048 10.1168 13.9987 11.0041 13.9978C11.8914 13.9969 12.7532 13.7012 13.4541 13.1571C14.155 12.613 14.6551 11.8514 14.876 10.992C14.916 10.997 14.958 11 15 11H29C29.2652 11 29.5196 10.8947 29.7071 10.7071C29.8946 10.5196 30 10.2652 30 10C30 9.7348 29.8946 9.48045 29.7071 9.29291C29.5196 9.10537 29.2652 9.00002 29 9.00002H15C14.9585 9.00014 14.9171 9.00281 14.876 9.00802C14.6551 8.14866 14.155 7.38707 13.4541 6.84297C12.7532 6.29887 11.8914 6.00312 11.0041 6.0022C10.1168 6.00128 9.25439 6.29526 8.55239 6.83791C7.85039 7.38056 7.34864 8.14112 7.126 9.00002H3C2.73478 9.00002 2.48043 9.10537 2.29289 9.29291C2.10536 9.48045 2 9.7348 2 10C2 10.2652 2.10536 10.5196 2.29289 10.7071C2.48043 10.8947 2.73478 11 3 11H7.126ZM9 10C9 9.46958 9.21071 8.96088 9.58579 8.5858C9.96086 8.21073 10.4696 8.00002 11 8.00002C11.5304 8.00002 12.0391 8.21073 12.4142 8.5858C12.7893 8.96088 13 9.46958 13 10C13 10.5304 12.7893 11.0392 12.4142 11.4142C12.0391 11.7893 11.5304 12 11 12C10.4696 12 9.96086 11.7893 9.58579 11.4142C9.21071 11.0392 9 10.5304 9 10ZM24.874 21C24.6516 20.1418 24.1504 19.3817 23.4493 18.8391C22.7481 18.2965 21.8866 18.0021 21 18.0021C20.1134 18.0021 19.2519 18.2965 18.5507 18.8391C17.8496 19.3817 17.3484 20.1418 17.126 21H3C2.73478 21 2.48043 21.1054 2.29289 21.2929C2.10536 21.4804 2 21.7348 2 22C2 22.2652 2.10536 22.5196 2.29289 22.7071C2.48043 22.8947 2.73478 23 3 23H17.126C17.3484 23.8583 17.8496 24.6183 18.5507 25.1609C19.2519 25.7036 20.1134 25.998 21 25.998C21.8866 25.998 22.7481 25.7036 23.4493 25.1609C24.1504 24.6183 24.6516 23.8583 24.874 23H29C29.2652 23 29.5196 22.8947 29.7071 22.7071C29.8946 22.5196 30 22.2652 30 22C30 21.7348 29.8946 21.4804 29.7071 21.2929C29.5196 21.1054 29.2652 21 29 21H24.874ZM23 22C23 21.4696 22.7893 20.9609 22.4142 20.5858C22.0391 20.2107 21.5304 20 21 20C20.4696 20 19.9609 20.2107 19.5858 20.5858C19.2107 20.9609 19 21.4696 19 22C19 22.5304 19.2107 23.0392 19.5858 23.4142C19.9609 23.7893 20.4696 24 21 24C21.5304 24 22.0391 23.7893 22.4142 23.4142C22.7893 23.0392 23 22.5304 23 22Z" fill="black"/>
</svg>
